<svg width="92" height="91" viewBox="0 0 92 91" fill="none" xmlns="http://www.w3.org/2000/svg">
<path d="M81.9071 42.4098L78.0017 36.9877C77.1275 35.76 75.9733 34.7584 74.6347 34.0661C73.2961 33.3737 71.8117 33.0104 70.3046 33.0065H53.6971V24.8923C53.6971 22.3783 52.6984 19.9672 50.9207 18.1895C49.143 16.4118 46.7319 15.4131 44.2179 15.4131H17.79C15.2781 15.4202 12.8711 16.4211 11.0949 18.1973C9.31877 19.9734 8.31783 22.3804 8.31082 24.8923V62.5815C8.31082 64.0899 8.91004 65.5365 9.97665 66.6031C11.0433 67.6698 12.4899 68.269 13.9983 68.269H18.6242C18.9105 70.2976 19.9198 72.1547 21.4664 73.4983C23.013 74.842 24.9929 75.5819 27.0417 75.5819C29.0904 75.5819 31.0703 74.842 32.6169 73.4983C34.1635 72.1547 35.1728 70.2976 35.4592 68.269H56.5408C56.8271 70.2976 57.8365 72.1547 59.3831 73.4983C60.9297 74.842 62.9095 75.5819 64.9583 75.5819C67.0071 75.5819 68.9869 74.842 70.5336 73.4983C72.0802 72.1547 73.0895 70.2976 73.3758 68.269H78.0017C79.5101 68.269 80.9567 67.6698 82.0233 66.6031C83.0899 65.5365 83.6892 64.0899 83.6892 62.5815V47.9077C83.6799 45.9346 83.0571 44.0132 81.9071 42.4098ZM27.0417 71.7952C26.1043 71.7952 25.1879 71.5173 24.4085 70.9965C23.6291 70.4757 23.0216 69.7355 22.6629 68.8694C22.3041 68.0034 22.2103 67.0504 22.3931 66.131C22.576 65.2116 23.0274 64.3671 23.6903 63.7043C24.3531 63.0414 25.1976 62.59 26.117 62.4071C27.0364 62.2243 27.9894 62.3181 28.8554 62.6768C29.7215 63.0356 30.4617 63.6431 30.9825 64.4225C31.5033 65.2019 31.7812 66.1182 31.7812 67.0556C31.7812 68.3127 31.2819 69.5182 30.393 70.407C29.5042 71.2959 28.2987 71.7952 27.0417 71.7952ZM49.9054 64.4773H35.1937C34.6417 62.7488 33.5544 61.2405 32.0891 60.1702C30.6238 59.1 28.8562 58.5232 27.0417 58.5232C25.2271 58.5232 23.4595 59.1 21.9942 60.1702C20.5289 61.2405 19.4416 62.7488 18.8896 64.4773H13.9983C13.4955 64.4773 13.0133 64.2776 12.6578 63.922C12.3022 63.5665 12.1025 63.0843 12.1025 62.5815V24.8923C12.1025 23.3839 12.7017 21.9373 13.7683 20.8706C14.8349 19.804 16.2816 19.2048 17.79 19.2048H44.2179C45.7263 19.2048 47.173 19.804 48.2396 20.8706C49.3062 21.9373 49.9054 23.3839 49.9054 24.8923V64.4773ZM64.9583 71.7952C64.0209 71.7952 63.1046 71.5173 62.3251 70.9965C61.5457 70.4757 60.9382 69.7355 60.5795 68.8694C60.2208 68.0034 60.1269 67.0504 60.3098 66.131C60.4927 65.2116 60.9441 64.3671 61.6069 63.7043C62.2698 63.0414 63.1143 62.59 64.0337 62.4071C64.9531 62.2243 65.906 62.3181 66.7721 62.6768C67.6381 63.0356 68.3783 63.6431 68.8991 64.4225C69.4199 65.2019 69.6979 66.1182 69.6979 67.0556C69.6979 68.3127 69.1986 69.5182 68.3097 70.407C67.4209 71.2959 66.2153 71.7952 64.9583 71.7952ZM79.8975 62.5815C79.8975 63.0843 79.6978 63.5665 79.3422 63.922C78.9867 64.2776 78.5045 64.4773 78.0017 64.4773H73.1104C72.5583 62.7488 71.4711 61.2405 70.0058 60.1702C68.5405 59.1 66.7729 58.5232 64.9583 58.5232C63.1438 58.5232 61.3762 59.1 59.9109 60.1702C58.4455 61.2405 57.3583 62.7488 56.8062 64.4773H53.6971V36.7981H70.3046C71.2092 36.8042 72.0996 37.0237 72.9034 37.4388C73.7072 37.8539 74.4017 38.4528 74.9304 39.1869L78.8358 44.609C79.5182 45.5744 79.8887 46.7255 79.8975 47.9077V62.5815Z" fill="#FE9832"/>
<path d="M68.8599 46.2773H61.2766C60.7738 46.2773 60.2916 46.0776 59.936 45.722C59.5805 45.3665 59.3808 44.8843 59.3808 44.3815C59.3808 43.8787 59.5805 43.3965 59.936 43.0409C60.2916 42.6854 60.7738 42.4857 61.2766 42.4857H68.8599C69.3627 42.4857 69.8449 42.6854 70.2005 43.0409C70.556 43.3965 70.7558 43.8787 70.7558 44.3815C70.7558 44.8843 70.556 45.3665 70.2005 45.722C69.8449 46.0776 69.3627 46.2773 68.8599 46.2773Z" fill="#FE9832"/>
</svg>
