<svg width="22" height="22" viewBox="0 0 22 22" fill="none" xmlns="http://www.w3.org/2000/svg">
<path d="M18.372 7.46419C18.3633 6.80839 18.2405 6.15911 18.0092 5.5454C17.8086 5.02773 17.5022 4.5576 17.1097 4.16504C16.7171 3.77248 16.247 3.46612 15.7293 3.26554C15.1235 3.03812 14.4835 2.91516 13.8365 2.90187C13.0035 2.86464 12.7394 2.85425 10.625 2.85425C8.5105 2.85425 8.23948 2.85425 7.41256 2.90187C6.76589 2.91525 6.12617 3.03822 5.52062 3.26554C5.00287 3.46598 4.53267 3.77229 4.14009 4.16487C3.74751 4.55745 3.4412 5.02765 3.24076 5.5454C3.01289 6.15076 2.89019 6.79063 2.87796 7.43734C2.84072 8.27118 2.82947 8.53528 2.82947 10.6498C2.82947 12.7642 2.82947 13.0344 2.87796 13.8622C2.89095 14.5098 3.01303 15.1489 3.24076 15.7558C3.44154 16.2734 3.74808 16.7434 4.14079 17.1359C4.5335 17.5283 5.00374 17.8344 5.52148 18.0348C6.12538 18.2714 6.76521 18.4032 7.41343 18.4245C8.24727 18.4617 8.51136 18.473 10.6258 18.473C12.7403 18.473 13.0113 18.473 13.8382 18.4245C14.4852 18.4117 15.1253 18.2891 15.7311 18.0617C16.2486 17.8609 16.7186 17.5544 17.1111 17.1619C17.5037 16.7694 17.8101 16.2993 18.0109 15.7818C18.2386 15.1757 18.3607 14.5367 18.3737 13.8881C18.411 13.0552 18.4222 12.7911 18.4222 10.6757C18.4205 8.56125 18.4205 8.29283 18.372 7.46419ZM10.6198 14.6484C8.40832 14.6484 6.61682 12.8569 6.61682 10.6454C6.61682 8.43397 8.40832 6.64247 10.6198 6.64247C11.6814 6.64247 12.6996 7.06421 13.4503 7.81491C14.201 8.56561 14.6227 9.58377 14.6227 10.6454C14.6227 11.7071 14.201 12.7252 13.4503 13.4759C12.6996 14.2266 11.6814 14.6484 10.6198 14.6484ZM14.7821 7.42782C14.6594 7.42793 14.538 7.40387 14.4247 7.357C14.3114 7.31013 14.2085 7.24138 14.1218 7.15468C14.0351 7.06798 13.9663 6.96504 13.9195 6.85174C13.8726 6.73844 13.8485 6.61701 13.8486 6.4944C13.8486 6.37188 13.8728 6.25056 13.9197 6.13736C13.9665 6.02417 14.0353 5.92132 14.1219 5.83468C14.2085 5.74805 14.3114 5.67932 14.4246 5.63244C14.5378 5.58555 14.6591 5.56142 14.7816 5.56142C14.9041 5.56142 15.0255 5.58555 15.1387 5.63244C15.2519 5.67932 15.3547 5.74805 15.4413 5.83468C15.528 5.92132 15.5967 6.02417 15.6436 6.13736C15.6905 6.25056 15.7146 6.37188 15.7146 6.4944C15.7146 7.01047 15.2973 7.42782 14.7821 7.42782Z" fill="white"/>
<path d="M10.6198 13.2454C12.0558 13.2454 13.22 12.0812 13.22 10.6452C13.22 9.20909 12.0558 8.04492 10.6198 8.04492C9.1837 8.04492 8.01953 9.20909 8.01953 10.6452C8.01953 12.0812 9.1837 13.2454 10.6198 13.2454Z" fill="white"/>
</svg>
