<svg width="15" height="15" viewBox="0 0 15 15" fill="none" xmlns="http://www.w3.org/2000/svg">
<path d="M12.9915 0.0610352C13.4145 0.0610352 13.8202 0.229061 14.1192 0.528149C14.4183 0.827237 14.5864 1.23289 14.5864 1.65586V12.8197C14.5864 13.2426 14.4183 13.6483 14.1192 13.9474C13.8202 14.2465 13.4145 14.4145 12.9915 14.4145H1.82774C1.40476 14.4145 0.999112 14.2465 0.700024 13.9474C0.400936 13.6483 0.23291 13.2426 0.23291 12.8197V1.65586C0.23291 1.23289 0.400936 0.827237 0.700024 0.528149C0.999112 0.229061 1.40476 0.0610352 1.82774 0.0610352H12.9915ZM12.5928 12.4209V8.19466C12.5928 7.50521 12.3189 6.844 11.8314 6.35648C11.3439 5.86897 10.6827 5.59509 9.99325 5.59509C9.31545 5.59509 8.52601 6.00974 8.14325 6.63172V5.7466H5.91847V12.4209H8.14325V8.4897C8.14325 7.87569 8.63765 7.37332 9.25166 7.37332C9.54774 7.37332 9.8317 7.49094 10.0411 7.7003C10.2504 7.90966 10.368 8.19362 10.368 8.4897V12.4209H12.5928ZM3.32688 4.49466C3.68217 4.49466 4.02292 4.35351 4.27416 4.10228C4.52539 3.85105 4.66653 3.5103 4.66653 3.155C4.66653 2.41341 4.06847 1.80737 3.32688 1.80737C2.96946 1.80737 2.62669 1.94935 2.37396 2.20208C2.12123 2.45481 1.97925 2.79759 1.97925 3.155C1.97925 3.8966 2.58528 4.49466 3.32688 4.49466ZM4.43528 12.4209V5.7466H2.22644V12.4209H4.43528Z" fill="white"/>
</svg>
