<svg width="92" height="91" viewBox="0 0 92 91" fill="none" xmlns="http://www.w3.org/2000/svg">
<path d="M47.9999 75.4154C47.0704 75.4234 46.1569 75.1737 45.3606 74.6941L35.4098 68.8745C31.6845 66.7911 28.5753 63.7612 26.3963 60.0912C24.2172 56.4211 23.0457 52.2408 22.9999 47.9728V32.0712C23.0004 30.9996 23.329 29.9539 23.9415 29.0746C24.554 28.1954 25.4211 27.5248 26.4262 27.1531L46.1967 19.8908C47.3611 19.4646 48.6388 19.4646 49.8032 19.8908L69.5737 27.1531C70.5787 27.5248 71.4458 28.1954 72.0584 29.0746C72.6709 29.9539 72.9995 30.9996 72.9999 32.0712V47.9728C72.9542 52.2408 71.7826 56.4211 69.6036 60.0912C67.4246 63.7612 64.3153 66.7911 60.5901 68.8745L50.6393 74.6941C49.843 75.1737 48.9295 75.4234 47.9999 75.4154ZM47.9999 23.6777C47.8699 23.6541 47.7366 23.6541 47.6065 23.6777L27.836 30.9728C27.6133 31.0553 27.4222 31.2057 27.2898 31.4029C27.1574 31.6 27.0904 31.8338 27.0983 32.0712V47.9728C27.1458 51.5241 28.1305 54.9998 29.9527 58.0483C31.7749 61.0968 34.37 63.61 37.4753 65.3335L47.4262 71.1695C47.6021 71.2657 47.7994 71.3161 47.9999 71.3161C48.2005 71.3161 48.3977 71.2657 48.5737 71.1695L58.5245 65.3335C61.6299 63.61 64.225 61.0968 66.0472 58.0483C67.8694 54.9998 68.854 51.5241 68.9016 47.9728V32.0712C68.9026 31.8394 68.8324 31.6128 68.7005 31.4223C68.5685 31.2317 68.3812 31.0862 68.1639 31.0056L48.3934 23.7433C48.2673 23.6976 48.134 23.6754 47.9999 23.6777Z" fill="#FE9832"/>
<path d="M46.1966 55.5958C45.7129 55.5926 45.2446 55.425 44.8688 55.1204L37.8688 49.2187C37.4514 48.8687 37.1901 48.3673 37.1425 47.8246C37.0948 47.282 37.2647 46.7427 37.6147 46.3253C37.9647 45.9079 38.4661 45.6466 39.0088 45.599C39.5514 45.5513 40.0907 45.7212 40.5081 46.0712L45.9999 50.6941L55.377 40.3663C55.7422 39.9619 56.2531 39.7192 56.7972 39.6916C57.3414 39.6639 57.8743 39.8535 58.2786 40.2187C58.6829 40.584 58.9256 41.0948 58.9533 41.639C58.981 42.1832 58.7914 42.716 58.4261 43.1204L47.8032 54.9237C47.5998 55.145 47.3509 55.3197 47.0736 55.4358C46.7962 55.5518 46.4971 55.6064 46.1966 55.5958Z" fill="#FE9832"/>
</svg>
