<svg width="92" height="91" viewBox="0 0 92 91" fill="none" xmlns="http://www.w3.org/2000/svg">
<g clip-path="url(#clip0_5_98)">
<path d="M39.4158 66.9567C39.414 65.1861 39.9962 63.4643 41.0723 62.0582C42.1484 60.6521 43.6583 59.6403 45.3679 59.1794C47.0775 58.7186 48.8913 58.8346 50.5283 59.5093C52.1653 60.1841 53.534 61.38 54.4224 62.9116C60.5397 60.2129 62.8316 55.9776 62.8316 47.9284V39.1475C62.8316 27.463 56.2429 19.3905 46.0015 19.3905C35.76 19.3905 29.1714 27.466 29.1714 39.1475V49.3919C29.1706 49.9739 28.9391 50.5318 28.5276 50.9433C28.116 51.3548 27.5581 51.5864 26.9761 51.5872H24.0492C21.9156 51.5848 19.8701 50.7365 18.3611 49.2281C16.8522 47.7197 16.0031 45.6745 16 43.5409V40.6139C16.0023 38.4796 16.851 36.4333 18.3599 34.9238C19.8689 33.4144 21.9148 32.5649 24.0492 32.5618H25.4483C27.664 22.1096 35.2478 15 46.0015 15C56.7552 15 64.336 22.1096 66.5517 32.5618H67.9508C70.0846 32.5649 72.1302 33.414 73.639 34.9228C75.1479 36.4316 75.9969 38.4772 76 40.611V43.538C75.9977 45.672 75.1489 47.718 73.6399 49.227C72.1309 50.736 70.0849 51.5848 67.9508 51.5872H67.0464C66.9335 55.0539 65.7703 58.4046 63.711 61.1956C61.6517 63.9867 58.7932 66.0866 55.5141 67.2172C55.4796 69.352 54.5984 71.3856 53.0645 72.8707C51.5305 74.3557 49.4695 75.1707 47.3347 75.1361C45.1999 75.1016 43.1663 74.2204 41.6812 72.6865C40.1961 71.1525 39.3812 69.0915 39.4158 66.9567ZM43.8062 66.9567C43.8062 67.6803 44.0208 68.3877 44.4228 68.9894C44.8249 69.591 45.3963 70.06 46.0648 70.3369C46.7334 70.6138 47.469 70.6863 48.1787 70.5451C48.8885 70.4039 49.5404 70.0555 50.0521 69.5438C50.5637 69.0321 50.9122 68.3802 51.0534 67.6705C51.1945 66.9607 51.1221 66.2251 50.8452 65.5566C50.5682 64.888 50.0993 64.3166 49.4976 63.9146C48.896 63.5125 48.1886 63.298 47.4649 63.298C46.4948 63.2987 45.5647 63.6845 44.8787 64.3704C44.1927 65.0564 43.807 65.9866 43.8062 66.9567ZM67.222 47.1996H67.9508C68.9214 47.1996 69.8524 46.8142 70.539 46.1282C71.2256 45.4421 71.6117 44.5115 71.6125 43.5409V40.6139C71.6125 39.6433 71.2271 38.7124 70.541 38.0258C69.855 37.3392 68.9244 36.9531 67.9538 36.9523H67.222V47.1996ZM20.3905 40.6139V43.5409C20.392 44.5105 20.7781 45.4399 21.464 46.1253C22.1498 46.8106 23.0796 47.1959 24.0492 47.1967H24.7809V36.9523H24.0492C23.0786 36.9531 22.148 37.3392 21.4619 38.0258C20.7758 38.7124 20.3905 39.6433 20.3905 40.6139Z" fill="#FE9832"/>
</g>
<defs>
<clipPath id="clip0_5_98">
<rect width="91" height="91" fill="white" transform="translate(0.5)"/>
</clipPath>
</defs>
</svg>
