<svg width="20" height="13" viewBox="0 0 20 13" fill="none" xmlns="http://www.w3.org/2000/svg">
<path d="M8.20693 9.27712L13.1732 6.54313L8.20693 3.80914V9.27712ZM19.2687 2.1414C19.3931 2.56973 19.4792 3.14387 19.5366 3.87293C19.6036 4.602 19.6323 5.23081 19.6323 5.77761L19.6897 6.54313C19.6897 8.53894 19.5366 10.0062 19.2687 10.9449C19.0294 11.765 18.4744 12.2936 17.6132 12.5215C17.1635 12.6399 16.3406 12.7219 15.0774 12.7766C13.8335 12.8404 12.6948 12.8678 11.6422 12.8678L10.1207 12.9224C6.11133 12.9224 3.61383 12.7766 2.62822 12.5215C1.76702 12.2936 1.21202 11.765 0.972792 10.9449C0.848396 10.5165 0.762275 9.94239 0.704861 9.21333C0.637879 8.48426 0.609172 7.85544 0.609172 7.30865L0.551758 6.54313C0.551758 4.54732 0.704861 3.08007 0.972792 2.1414C1.21202 1.32121 1.76702 0.792636 2.62822 0.564804C3.07797 0.446331 3.9009 0.364311 5.164 0.309631C6.40797 0.245838 7.54667 0.218498 8.59926 0.218498L10.1207 0.163818C14.1301 0.163818 16.6276 0.309631 17.6132 0.564804C18.4744 0.792636 19.0294 1.32121 19.2687 2.1414Z" fill="white"/>
</svg>
