<svg width="28" height="28" viewBox="0 0 28 28" fill="none" xmlns="http://www.w3.org/2000/svg">
<rect width="28" height="28" rx="8" fill="#FE9832"/>
<g clip-path="url(#clip0_821_2)">
<path d="M20.647 11.9896L19.8484 7.62348C19.8051 7.3872 19.5993 7.21558 19.3591 7.21558H13.2312C13.0029 7.21558 12.804 7.37092 12.7486 7.59232L11.8082 11.3539H9.74943V7.71297C9.74943 7.43825 9.52672 7.21558 9.25204 7.21558C8.97736 7.21558 8.75465 7.43825 8.75465 7.71297V11.3539H6.0146C5.86471 11.3539 5.72281 11.4215 5.62835 11.5379C5.53388 11.6543 5.497 11.8071 5.52787 11.9537L6.17815 15.0427C5.45899 15.638 5 16.5371 5 17.5415C5 19.3297 6.45482 20.7845 8.24301 20.7845C10.0312 20.7845 11.486 19.3297 11.486 17.5415C11.486 17.4813 11.4841 17.4217 11.4808 17.3624H13.7498C14.3133 19.3357 16.133 20.7845 18.2848 20.7845C20.8848 20.7845 23 18.6692 23 16.0692C23 14.3294 22.0527 12.8068 20.647 11.9896ZM19.5194 11.3539H17.3894V8.21036H18.9444L19.5194 11.3539ZM13.6196 8.21036H16.3946V11.3539H12.8337L13.6196 8.21036ZM8.24301 19.7897C7.00334 19.7897 5.99479 18.7811 5.99479 17.5415C5.99479 16.3018 7.00334 15.2932 8.24301 15.2932C9.48267 15.2932 10.4912 16.3018 10.4912 17.5415C10.4912 18.7811 9.48267 19.7897 8.24301 19.7897ZM11.2652 16.3676C10.7938 15.1581 9.61729 14.2985 8.24301 14.2985C7.83447 14.2985 7.44372 14.3751 7.08336 14.5136L6.62759 12.3487H15.3912C14.2833 13.2123 13.5694 14.5589 13.5694 16.0692C13.5694 16.1694 13.5729 16.2689 13.5791 16.3676H11.2652ZM18.2847 19.7897C16.2332 19.7897 14.5642 18.1207 14.5642 16.0692C14.5642 14.0177 16.2332 12.3487 18.2847 12.3487C20.3362 12.3487 22.0052 14.0177 22.0052 16.0692C22.0052 18.1207 20.3362 19.7897 18.2847 19.7897Z" fill="white"/>
<path d="M18.2847 13.5468C16.8939 13.5468 15.7623 14.6783 15.7623 16.0691C15.7623 17.46 16.8939 18.5915 18.2847 18.5915C19.6755 18.5915 20.8071 17.46 20.8071 16.0691C20.8071 14.6783 19.6755 13.5468 18.2847 13.5468ZM18.2847 17.5967C17.4424 17.5967 16.7571 16.9115 16.7571 16.0691C16.7571 15.2268 17.4424 14.5415 18.2847 14.5415C19.127 14.5415 19.8123 15.2268 19.8123 16.0691C19.8123 16.9115 19.127 17.5967 18.2847 17.5967Z" fill="white"/>
<path d="M8.243 16.17C7.4868 16.17 6.87158 16.7853 6.87158 17.5415C6.87158 18.2977 7.4868 18.9129 8.243 18.9129C8.99919 18.9129 9.61441 18.2977 9.61441 17.5415C9.61441 16.7853 8.99919 16.17 8.243 16.17ZM8.243 17.9181C8.03532 17.9181 7.86637 17.7491 7.86637 17.5415C7.86637 17.3338 8.03532 17.1648 8.243 17.1648C8.45067 17.1648 8.61962 17.3338 8.61962 17.5415C8.61962 17.7491 8.45067 17.9181 8.243 17.9181Z" fill="white"/>
</g>
<defs>
<clipPath id="clip0_821_2">
<rect width="18" height="18" fill="white" transform="translate(5 5)"/>
</clipPath>
</defs>
</svg>
