<svg width="28" height="28" viewBox="0 0 28 28" fill="none" xmlns="http://www.w3.org/2000/svg">
<rect y="0.00012207" width="28" height="28" rx="8" fill="#FE9832"/>
<g clip-path="url(#clip0_821_23)">
<mask id="mask0_821_23" style="mask-type:luminance" maskUnits="userSpaceOnUse" x="5" y="5" width="18" height="19">
<path d="M23 5.00012H5V23.0001H23V5.00012Z" fill="white"/>
</mask>
<g mask="url(#mask0_821_23)">
<path d="M22.9601 13.7931L21.3789 9.80668C21.3374 9.70181 21.2653 9.61183 21.172 9.54844C21.0787 9.48504 20.9685 9.45115 20.8557 9.45117H17.2693C17.1201 9.45117 16.977 9.51044 16.8715 9.61593C16.766 9.72142 16.7068 9.86449 16.7068 10.0137V17.4241H16.2146V10.0137C16.2146 9.86449 16.1553 9.72142 16.0498 9.61593C15.9443 9.51044 15.8013 9.45117 15.6521 9.45117H5.5625C5.41332 9.45117 5.27025 9.51044 5.16476 9.61593C5.05927 9.72142 5 9.86449 5 10.0137V17.9866C5 18.1357 5.05927 18.2788 5.16476 18.3843C5.27025 18.4898 5.41332 18.5491 5.5625 18.5491H6.45687C6.57289 18.9008 6.7969 19.2069 7.097 19.4239C7.3971 19.6409 7.758 19.7577 8.12834 19.7577C8.49868 19.7577 8.8596 19.6409 9.1597 19.4239C9.4598 19.2069 9.68379 18.9008 9.79981 18.5491H18.1991C18.3151 18.9008 18.5391 19.2069 18.8392 19.4239C19.1393 19.6409 19.5002 19.7577 19.8705 19.7577C20.2409 19.7577 20.6018 19.6409 20.9019 19.4239C21.202 19.2069 21.426 18.9008 21.542 18.5491H22.4375C22.5867 18.5491 22.7297 18.4898 22.8352 18.3843C22.9407 18.2788 23 18.1357 23 17.9866V14.0001C23 13.9292 22.9865 13.8589 22.9601 13.7931ZM20.4744 10.5762L21.7203 13.7189H17.8318V10.5762H20.4744ZM8.12863 18.6329C8.00083 18.6327 7.87592 18.5947 7.7697 18.5237C7.66349 18.4526 7.58075 18.3516 7.53192 18.2335C7.48309 18.1154 7.47035 17.9855 7.49536 17.8601C7.52036 17.7348 7.58196 17.6197 7.67237 17.5293C7.76278 17.439 7.87794 17.3775 8.0033 17.3526C8.12866 17.3277 8.25858 17.3405 8.37665 17.3895C8.49471 17.4384 8.59563 17.5213 8.66662 17.6275C8.73761 17.7338 8.7755 17.8587 8.7755 17.9866C8.77535 18.158 8.70713 18.3224 8.58583 18.4436C8.46454 18.5648 8.3001 18.6329 8.12863 18.6329ZM14.9489 17.4241H9.80037C9.68436 17.0724 9.46037 16.7662 9.16026 16.5492C8.86016 16.3322 8.49925 16.2154 8.12891 16.2154C7.75856 16.2154 7.39765 16.3322 7.09755 16.5492C6.79745 16.7662 6.57346 17.0724 6.45744 17.4241H6.125V10.5762H15.089V17.4241H14.9489ZM19.8708 18.6329C19.743 18.6327 19.6181 18.5947 19.5119 18.5237C19.4057 18.4526 19.3229 18.3516 19.2741 18.2335C19.2253 18.1154 19.2125 17.9855 19.2375 17.8601C19.2625 17.7348 19.3241 17.6197 19.4146 17.5293C19.505 17.439 19.6201 17.3775 19.7455 17.3526C19.8708 17.3277 20.0008 17.3405 20.1188 17.3895C20.2369 17.4384 20.3378 17.5213 20.4088 17.6275C20.4798 17.7338 20.5177 17.8587 20.5177 17.9866C20.5175 18.158 20.4493 18.3224 20.328 18.4436C20.2067 18.5648 20.0423 18.6329 19.8708 18.6329ZM21.5426 17.4241C21.4265 17.0724 21.2026 16.7662 20.9025 16.5492C20.6024 16.3322 20.2414 16.2154 19.8711 16.2154C19.5008 16.2154 19.1398 16.3322 18.8397 16.5492C18.5396 16.7662 18.3156 17.0724 18.1996 17.4241H17.8318V14.2814H21.875V17.4241H21.5426Z" fill="white"/>
<path d="M19.2031 14.6565H18.4297C18.3551 14.6565 18.2836 14.6861 18.2308 14.7389C18.1781 14.7916 18.1484 14.8632 18.1484 14.9377C18.1484 15.0123 18.1781 15.0839 18.2308 15.1366C18.2836 15.1894 18.3551 15.219 18.4297 15.219H19.2031C19.2777 15.219 19.3493 15.1894 19.402 15.1366C19.4547 15.0839 19.4844 15.0123 19.4844 14.9377C19.4844 14.8632 19.4547 14.7916 19.402 14.7389C19.3493 14.6861 19.2777 14.6565 19.2031 14.6565Z" fill="white"/>
</g>
</g>
<defs>
<clipPath id="clip0_821_23">
<rect width="18" height="18" fill="white" transform="translate(5 5.00012)"/>
</clipPath>
</defs>
</svg>
